<?xml version='1.0' encoding='utf-8'?>
<svg xmlns="http://www.w3.org/2000/svg" enable-background="new -0.258 -0.548 123.547 123.539" viewBox="-.258 -.548 123.55 123.54"> <path d="m14.56 1.5004c-6.7878 0-12.308 5.5206-12.308 12.296v94.39c0 6.7753 5.5206 12.283 12.308 12.283h94.364c6.7878 0 12.308-5.508 12.308-12.283v-94.39c0-6.7753-5.5206-12.296-12.308-12.296h-94.364z" fill="#fff"/> <path d="m108.92 122.99c8.1931 0 14.818-6.6373 14.818-14.805v-94.39c0-8.1805-6.6247-14.805-14.818-14.805h-94.364c-8.1805 0-14.818 6.6247-14.818 14.805v94.39c0 8.168 6.6373 14.805 14.818 14.805h94.364z" fill="#231f20"/> <path d="m56.353 42.604c0 3.2873-2.9736 6.7627-6.838 6.7627v55.244c0 7.8418-10.69 7.8418-10.69 0v-55.244c-3.764 0-7.0388-2.8858-7.0388-7.252v-30.388c0-2.6474 3.8268-2.7352 3.8268 0.10037v22.471h6.8882-0.28858v-22.634c0-2.5344 3.5758-2.6223 3.5758 0.08783v22.547h6.838v-22.634c0-2.5094 3.7264-2.5972 3.7264 0.08783v30.853z" fill="#fff"/> <path d="m89.866 18.815v85.77c0 7.6661-10.715 7.5406-10.715 0v-34.014h-5.7088v-51.756c0-12.032 16.424-12.032 16.424 0" fill="#fff"/> </svg>